<svg id="Layer_1" version="1.1" viewBox="0 0 128 128" xml:space="preserve" xmlns="http://www.w3.org/2000/svg"><style/><path d="M111.1 47.3H16.8c1-2.9 2.3-5.7 3.8-8.3C29.3 24 45.5 14 64 14s34.7 10 43.3 25c1.5 2.6 2.8 5.4 3.8 8.3z" fill="#fff"/><path d="M114 64c0 5.8-1 11.5-2.9 16.7H16.8C15 75.5 14 69.8 14 64s1-11.5 2.8-16.7h94.3C113 52.5 114 58.2 114 64z" fill="#35469c"/><path d="M111.1 80.7c-1 2.9-2.3 5.7-3.8 8.3-8.6 15-24.8 25-43.3 25-18.5 0-34.7-10-43.3-25-1.5-2.6-2.8-5.4-3.8-8.3h94.2z" fill="#ed2424"/></svg>