<svg width="106" height="23" viewBox="0 0 106 23" fill="none" xmlns="http://www.w3.org/2000/svg"><path d="M66.332 2.272v3.191H64.31v2.093h2.022v7.11c0 2.428 1.111 3.4 3.906 3.4.49 0 .958-.059 1.367-.128v-2.07c-.35.035-.573.058-.958.058-1.251 0-1.8-.578-1.8-1.896V7.556h2.758V5.463h-2.759v-3.19h-2.514zm12.392 15.967c3.718 0 5.998-2.463 5.998-6.544 0-4.058-2.292-6.532-5.998-6.532-3.718 0-6.01 2.474-6.01 6.532 0 4.081 2.28 6.544 6.01 6.544zm0-2.209c-2.187 0-3.414-1.584-3.414-4.335 0-2.729 1.227-4.324 3.414-4.324 2.175 0 3.414 1.595 3.414 4.324 0 2.74-1.24 4.335-3.414 4.335zm7.948 1.966h2.514v-7.434c0-1.77 1.345-2.96 3.25-2.96.445 0 1.193.081 1.404.15v-2.45c-.27-.07-.749-.105-1.123-.105-1.66 0-3.075.902-3.437 2.14h-.187V5.404h-2.42v12.59zm13.409-10.718c1.859 0 3.075 1.284 3.134 3.26h-6.431c.14-1.965 1.438-3.26 3.297-3.26zm3.122 7.319c-.468.982-1.508 1.526-3.028 1.526-2.011 0-3.31-1.4-3.391-3.607v-.139h8.991v-.867c0-3.954-2.14-6.347-5.682-6.347-3.59 0-5.87 2.555-5.87 6.578 0 4.024 2.234 6.498 5.882 6.498 2.911 0 4.945-1.388 5.518-3.642h-2.42zm-53.355-1.251c.194 3.092 2.799 5.07 6.677 5.07 4.144 0 6.738-2.074 6.738-5.381 0-2.6-1.479-4.039-5.066-4.865l-1.927-.468c-2.278-.527-3.199-1.234-3.199-2.468 0-1.558 1.43-2.577 3.575-2.577 2.036 0 3.442.995 3.696 2.589h2.642C62.826 2.334 60.233.285 56.682.285c-3.817 0-6.362 2.049-6.362 5.129 0 2.54 1.442 4.05 4.605 4.78l2.254.54c2.315.54 3.333 1.33 3.333 2.648 0 1.534-1.6 2.649-3.781 2.649-2.339 0-3.963-1.043-4.193-2.685h-2.69zm-26.04-8.149c-1.73 0-3.227.856-3.999 2.29h-.187V5.404h-2.42V22.18h2.514v-6.093h.198c.667 1.33 2.105 2.116 3.917 2.116 3.216 0 5.262-2.509 5.262-6.51 0-4-2.046-6.497-5.285-6.497zm-.713 10.776c-2.105 0-3.426-1.642-3.426-4.267 0-2.636 1.321-4.277 3.437-4.277 2.128 0 3.403 1.607 3.403 4.266 0 2.67-1.275 4.278-3.414 4.278zM37.889 5.197c-1.73 0-3.227.856-4 2.29h-.186V5.404h-2.42V22.18h2.513v-6.093h.2c.666 1.33 2.104 2.116 3.916 2.116 3.215 0 5.261-2.509 5.261-6.51 0-4-2.046-6.497-5.285-6.497zm-.714 10.776c-2.104 0-3.425-1.642-3.425-4.267 0-2.636 1.32-4.277 3.437-4.277 2.128 0 3.402 1.607 3.402 4.266 0 2.67-1.274 4.278-3.414 4.278zm-24.483 2.023h2.884L9.262.704h-2.92L.028 17.996h2.787l1.612-4.59h6.665l1.6 4.59zM7.662 3.844h.207l2.533 7.31H5.118l2.545-7.31z" fill="#000"/></svg>