<svg width="57" height="57" viewBox="0 0 57 57" fill="none" xmlns="http://www.w3.org/2000/svg"><rect x=".981" y="1.408" width="54.789" height="54.789" rx="7.872" fill="#fff"/><path d="M34.994 29.566a5.486 5.486 0 012.627-4.576c-1.007-1.422-2.694-2.324-4.448-2.378-1.872-.195-3.687 1.107-4.64 1.107-.972 0-2.44-1.088-4.022-1.056-2.061.066-3.983 1.225-4.985 3.006-2.156 3.69-.548 9.115 1.517 12.098 1.033 1.46 2.24 3.092 3.82 3.034 1.546-.063 2.123-.975 3.99-.975 1.848 0 2.39.975 4.002.938 1.659-.026 2.704-1.467 3.7-2.941a12.026 12.026 0 001.693-3.409c-1.95-.815-3.251-2.755-3.254-4.848zM31.95 20.65a5.33 5.33 0 001.242-3.847 5.546 5.546 0 00-3.575 1.829 5.12 5.12 0 00-1.275 3.704 4.643 4.643 0 003.608-1.686z" fill="#000"/><rect x=".981" y="1.408" width="54.789" height="54.789" rx="7.872" stroke="#000" stroke-width="1.211"/></svg>