<svg width="27" height="27" viewBox="0 0 27 27" fill="none" xmlns="http://www.w3.org/2000/svg"><circle cx="13.5" cy="13.287" r="12.5" stroke="#fff"/><mask id="a" style="mask-type:alpha" maskUnits="userSpaceOnUse" x="1" y="1" width="25" height="25"><circle cx="13.5" cy="13.287" r="12" fill="#2A2E7F"/></mask><g mask="url(#a)"><rect x="1.75" y="1.537" width="33.5" height="23.5" rx="1.75" fill="#fff" stroke="#F5F5F5" stroke-width=".5"/><mask id="b" style="mask-type:alpha" maskUnits="userSpaceOnUse" x="1" y="1" width="35" height="25"><rect x="1.75" y="1.537" width="33.5" height="23.5" rx="1.75" fill="#fff" stroke="#fff" stroke-width=".5"/></mask><g mask="url(#b)" fill-rule="evenodd" clip-rule="evenodd"><path d="M1.5 9.287h34v-8h-34v8z" fill="#04AAC8"/><path d="M1.5 25.287h34v-8h-34v8z" fill="#23C840"/><path d="M7.167 7.687c.499 0 .963-.149 1.35-.404a2.012 2.012 0 01-2.16-1.996 2.012 2.012 0 012.16-1.995 2.438 2.438 0 00-1.35-.405c-1.342 0-2.429 1.075-2.429 2.4 0 1.326 1.087 2.4 2.429 2.4zm4.047-.8c0 .442-.362.8-.81.8a.805.805 0 01-.809-.8c0-.441.363-.8.81-.8.447 0 .81.359.81.8zm2.429-2.4c.447 0 .81-.358.81-.8 0-.441-.363-.8-.81-.8a.805.805 0 00-.81.8c0 .442.363.8.81.8zm4.047-.8c0 .442-.362.8-.81.8a.805.805 0 01-.809-.8c0-.441.363-.8.81-.8.447 0 .81.359.81.8zm-.81 4c.448 0 .81-.358.81-.8 0-.441-.362-.8-.81-.8a.805.805 0 00-.809.8c0 .442.363.8.81.8zm-2.428-.8c0 .442-.362.8-.81.8a.805.805 0 01-.809-.8c0-.441.363-.8.81-.8.447 0 .81.359.81.8z" fill="#fff"/></g></g></svg>