<svg width="121" height="24" viewBox="0 0 121 24" fill="none" xmlns="http://www.w3.org/2000/svg"><path d="M38.971 6.824c-3.313 0-6.013 2.492-6.013 5.924 0 3.41 2.7 5.924 6.013 5.924 3.314 0 6.015-2.513 6.015-5.924-.002-3.432-2.702-5.924-6.015-5.924zm0 9.516c-1.815 0-3.38-1.48-3.38-3.59 0-2.133 1.566-3.591 3.38-3.591 1.816 0 3.38 1.458 3.38 3.59 0 2.109-1.564 3.59-3.38 3.59zM25.852 6.824c-3.313 0-6.013 2.492-6.013 5.924 0 3.41 2.7 5.924 6.013 5.924 3.314 0 6.014-2.513 6.014-5.924 0-3.432-2.7-5.924-6.014-5.924zm0 9.516c-1.816 0-3.38-1.48-3.38-3.59 0-2.133 1.566-3.591 3.38-3.591 1.816 0 3.38 1.458 3.38 3.59.002 2.109-1.564 3.59-3.38 3.59zM10.248 8.643v2.513h6.083c-.182 1.414-.658 2.446-1.385 3.163-.885.875-2.27 1.84-4.697 1.84-3.744 0-6.671-2.985-6.671-6.687 0-3.702 2.927-6.687 6.67-6.687 2.02 0 3.495.786 4.584 1.795l1.793-1.773C15.104 1.371 13.085.272 10.248.272c-5.128 0-9.44 4.129-9.44 9.2s4.312 9.2 9.44 9.2c2.768 0 4.857-.899 6.49-2.581 1.678-1.66 2.201-3.995 2.201-5.88a8.02 8.02 0 00-.137-1.57H10.25v.002zm63.818 1.951c-.499-1.323-2.02-3.77-5.129-3.77-3.086 0-5.65 2.401-5.65 5.924 0 3.32 2.542 5.924 5.945 5.924 2.745 0 4.334-1.66 4.993-2.626L72.183 14.7c-.68.988-1.612 1.638-2.951 1.638-1.338 0-2.292-.606-2.905-1.795l8.01-3.276-.271-.671zm-8.17 1.976c-.067-2.29 1.793-3.456 3.133-3.456 1.044 0 1.928.517 2.224 1.256l-5.357 2.2zm-6.511 5.744h2.63V.902h-2.63v17.412zM55.072 8.149h-.09c-.59-.697-1.726-1.325-3.154-1.325-2.996 0-5.741 2.603-5.741 5.947 0 3.321 2.745 5.902 5.741 5.902 1.43 0 2.564-.628 3.154-1.346h.09v.853c0 2.266-1.226 3.478-3.199 3.478-1.611 0-2.61-1.144-3.018-2.109l-2.292.943c.658 1.57 2.404 3.5 5.31 3.5 3.086 0 5.696-1.795 5.696-6.172V7.185h-2.496v.964h-.001zm-3.017 8.19c-1.816 0-3.336-1.503-3.336-3.567 0-2.088 1.52-3.613 3.336-3.613 1.791 0 3.199 1.525 3.199 3.612 0 2.065-1.407 3.569-3.2 3.569zM86.396.903h-6.297v17.412h2.626v-6.597h3.67c2.913 0 5.777-2.085 5.777-5.407S89.31.902 86.396.902zm.068 8.392h-3.739v-5.97h3.739a3.034 3.034 0 013.08 2.985c0 1.348-1.115 2.984-3.08 2.984zm16.243-2.5c-1.903 0-3.874.828-4.69 2.665l2.333.963c.499-.963 1.429-1.277 2.402-1.277 1.359 0 2.741.806 2.763 2.24v.179c-.476-.269-1.496-.671-2.741-.671-2.514 0-5.075 1.366-5.075 3.919 0 2.33 2.063 3.83 4.372 3.83 1.767 0 2.741-.784 3.353-1.703h.09v1.344h2.538v-6.676c.001-3.09-2.334-4.813-5.345-4.813zm-.319 9.542c-.859 0-2.06-.426-2.06-1.48 0-1.344 1.496-1.859 2.787-1.859 1.154 0 1.699.247 2.4.582-.204 1.615-1.608 2.757-3.127 2.757zm14.907-9.162l-3.013 7.549h-.09l-3.127-7.55h-2.831l4.689 10.551-2.674 5.87h2.741l7.227-16.42h-2.922zm-23.672 11.14h2.627V.902h-2.627v17.412z" fill="#000"/></svg>