<svg width="57" height="57" viewBox="0 0 57 57" fill="none" xmlns="http://www.w3.org/2000/svg"><rect x=".981" y="1.408" width="54.789" height="54.789" rx="5.45" fill="#fff"/><path fill-rule="evenodd" clip-rule="evenodd" d="M17.6 17.71a2.366 2.366 0 00-.119.774V39.12c0 .294.042.553.119.775l11.216-11.093L17.6 17.711zm.853 23.044c.4.112.893.034 1.426-.265l13.235-7.437-3.437-3.398-11.224 11.1zm15.76-8.318l4.067-2.285c1.319-.742 1.319-1.954 0-2.695l-4.069-2.287-3.673 3.633 3.675 3.634zm-1.1-7.884l-13.234-7.436c-.533-.3-1.027-.377-1.426-.264L29.677 27.95l3.436-3.398z" fill="#000"/><rect x=".981" y="1.408" width="54.789" height="54.789" rx="5.45" stroke="#000" stroke-width="1.211"/></svg>