<svg width="33" height="33" viewBox="0 0 33 33" fill="none" xmlns="http://www.w3.org/2000/svg"><path fill-rule="evenodd" clip-rule="evenodd" d="M5.515 12.968c0-6.075 4.925-11 11-11 6.076 0 11 4.925 11 11 0 4.688-2.684 9.082-5.223 12.213a39.622 39.622 0 01-4.694 4.85 22.509 22.509 0 01-.423.356l-.024.02-.007.006-.003.002-.626-.78-.625.78-.003-.002-.007-.006-.025-.02-.09-.074a34.815 34.815 0 01-1.499-1.336 39.622 39.622 0 01-3.527-3.796c-2.539-3.13-5.224-7.525-5.224-12.213zm11 16.667l-.624.78a1 1 0 001.25 0l-.626-.78zm0-1.313a37.615 37.615 0 004.223-4.4c2.462-3.036 4.777-6.975 4.777-10.954a9 9 0 10-18 0c0 3.98 2.316 7.918 4.777 10.954a37.615 37.615 0 004.223 4.4z" fill="#3E7EC1"/><path fill-rule="evenodd" clip-rule="evenodd" d="M11.515 12.968a5 5 0 1110 0 5 5 0 01-10 0zm5-3a3 3 0 100 6 3 3 0 000-6z" fill="#3E7EC1"/></svg>