<svg width="33" height="37" viewBox="0 0 33 37" fill="none" xmlns="http://www.w3.org/2000/svg"><path fill-rule="evenodd" clip-rule="evenodd" d="M.348 1.534c-.193.388-.3.876-.3 1.45v30.804c0 .577.107 1.064.3 1.453l17.043-16.855L.348 1.534zm.845 34.575c.639.316 1.495.249 2.433-.277l20.027-11.254-5.401-5.34-17.06 16.871zm23.559-12.147l6.342-3.563c1.968-1.107 1.968-2.916 0-4.022l-6.345-3.565-5.636 5.574 5.639 5.576zm-1.101-11.767L3.626.943C2.688.416 1.832.35 1.192.665l17.06 16.87 5.399-5.34z" fill="#000"/></svg>