<svg width="119" height="51" viewBox="0 0 119 51" fill="none" xmlns="http://www.w3.org/2000/svg"><g clip-path="url(#clip0_4_9)"><path d="M98.268 13.018h2.465a.505.505 0 01.507.505v1.515a.508.508 0 01-.507.48h-2.465a.507.507 0 00-.506.505v2.853a.505.505 0 01-.476.48h-1.65a.507.507 0 01-.507-.48v-2.908a.504.504 0 00-.476-.505h-2.475a.476.476 0 01-.506-.48v-1.515a.504.504 0 01.506-.505h2.475a.477.477 0 00.476-.48V9.786a.504.504 0 01.506-.474h1.65a.476.476 0 01.477.474v2.743a.504.504 0 00.506.49z" fill="#69B43A"/><path d="M88.73 19.912a.508.508 0 01-.309-.106L67.888 3.933 47.749 19.498a.507.507 0 01-.506.055.505.505 0 01-.283-.454v-2.02a.505.505 0 01.197-.4L67.605.88a.507.507 0 01.617 0L89.07 16.987a.505.505 0 01.192.399v2.02a.504.504 0 01-.532.505z" fill="#2486E8"/><path d="M84.18 19.084v26.679c-3.985 1.383-3.96 1.939-8.035 2.701V30.996H60.117v19.19c-3.979.359-4.46.455-8.535.313V19.083a.505.505 0 01.197-.398L67.564 6.489a.507.507 0 01.618 0l15.784 12.195a.506.506 0 01.213.4zm-44.126-9.56h-5.867c-.164 0-.326.04-.47.116l-11.903 6.373a1.01 1.01 0 00-.506.874v6.115a1.01 1.01 0 00.956.978c.168.01.335-.023.487-.094l9.973-5.05v29.007c3.61.647 4.698 1.202 8.343 1.641v-38.97a1.009 1.009 0 00-1.013-.99z" fill="#2486E8"/><path d="M67.245 19.381a.409.409 0 01-.43.384h-1.352a.41.41 0 01-.425-.384v-1.217a.409.409 0 01.425-.389h1.352a.411.411 0 01.43.39v1.216zm2.643 0a.409.409 0 01-.43.384h-1.352a.41.41 0 01-.43-.384v-1.217a.408.408 0 01.43-.389h1.351a.41.41 0 01.43.39v1.216zm-2.643 2.278a.41.41 0 01-.43.389h-1.352a.41.41 0 01-.425-.389v-1.227a.409.409 0 01.425-.389h1.352a.411.411 0 01.43.389v1.227zm2.643 0a.41.41 0 01-.43.389h-1.352a.411.411 0 01-.43-.389v-1.227a.407.407 0 01.271-.366.411.411 0 01.159-.023h1.351a.41.41 0 01.43.389v1.227z" fill="#fff"/><path d="M0 36.698c4.642 2.782 9.74 4.873 14.843 6.66 8.36 2.84 16.997 4.79 25.768 5.818 6.073.654 12.18.938 18.286.849 17.668.086 35.017-6.838 48.235-18.448a69.33 69.33 0 0010.991-11.888l.425.278a72.902 72.902 0 01-17.404 17.17C82.119 50.54 63.068 52.388 40.53 49.823a120.482 120.482 0 01-25.818-6.06 104.11 104.11 0 01-7.554-3.172C4.748 39.455 2.096 38.213 0 36.688v.01z" fill="#69B43A"/></g><defs><clipPath id="clip0_4_9"><path fill="#fff" transform="translate(0 .787)" d="M0 0h118.548v50H0z"/></clipPath></defs></svg>