<svg width="26" height="32" viewBox="0 0 26 32" fill="none" xmlns="http://www.w3.org/2000/svg"><path d="M21.389 16.804c.03-2.341 1.302-4.557 3.32-5.783-1.273-1.797-3.405-2.937-5.622-3.005-2.366-.246-4.659 1.4-5.864 1.4-1.229 0-3.084-1.376-5.083-1.335-2.604.083-5.032 1.547-6.3 3.8-2.724 4.663-.692 11.517 1.918 15.287 1.305 1.846 2.83 3.908 4.827 3.835 1.954-.08 2.684-1.232 5.042-1.232 2.336 0 3.021 1.232 5.058 1.185 2.097-.033 3.417-1.854 4.677-3.717a15.198 15.198 0 002.139-4.308c-2.464-1.03-4.11-3.482-4.112-6.127zM17.541 5.537a6.737 6.737 0 001.57-4.862 7.009 7.009 0 00-4.518 2.311 6.47 6.47 0 00-1.61 4.682 5.867 5.867 0 004.558-2.131z" fill="#000"/></svg>