<svg width="33" height="33" viewBox="0 0 33 33" fill="none" xmlns="http://www.w3.org/2000/svg"><path fill-rule="evenodd" clip-rule="evenodd" d="M2.182 5.635a1 1 0 011-1h21.333a1 1 0 011 1v5.333a1 1 0 01-2 0V6.635H4.183v14h4.333a1 1 0 110 2H3.182a1 1 0 01-1-1v-16z" fill="#3E7EC1"/><path fill-rule="evenodd" clip-rule="evenodd" d="M7.515 10.968a1 1 0 011-1H29.85a1 1 0 011 1v16a1 1 0 01-1 1H8.515a1 1 0 01-1-1v-16zm2 1v14H28.85v-14H9.515z" fill="#3E7EC1"/><path fill-rule="evenodd" clip-rule="evenodd" d="M7.715 10.368a1 1 0 011.4-.2l10.067 7.55 10.067-7.55a1 1 0 111.2 1.6l-10.667 8a1 1 0 01-1.2 0l-10.667-8a1 1 0 01-.2-1.4z" fill="#3E7EC1"/><path fill-rule="evenodd" clip-rule="evenodd" d="M7.515 10.968a1 1 0 011-1H21.85a1 1 0 010 2H9.515v9a1 1 0 01-2 0v-10z" fill="#3E7EC1"/><path fill-rule="evenodd" clip-rule="evenodd" d="M15.515 10.968a1 1 0 011-1H29.85a1 1 0 011 1v10a1 1 0 01-2 0v-9H16.515a1 1 0 01-1-1z" fill="#3E7EC1"/></svg>