<svg width="92" height="103" viewBox="0 0 92 103" fill="none" xmlns="http://www.w3.org/2000/svg"><path fill-rule="evenodd" clip-rule="evenodd" d="M46 94.417s28.75-25.75 28.75-53.646C74.75 22.994 61.878 8.583 46 8.583S17.25 22.994 17.25 40.771C17.25 68.667 46 94.417 46 94.417zm0-69.74c-7.94 0-14.375 7.205-14.375 16.094 0 8.888 6.436 16.093 14.375 16.093 7.94 0 14.375-7.205 14.375-16.093 0-8.889-6.436-16.094-14.375-16.094z" fill="#3E7EC1"/><path fill-rule="evenodd" clip-rule="evenodd" d="M14.375 40.77C14.375 21.217 28.534 5.365 46 5.365s31.625 15.852 31.625 35.407c0 15.088-7.718 29.233-15.017 39.31-3.693 5.1-7.38 9.296-10.142 12.216a105.292 105.292 0 01-3.354 3.397 67.678 67.678 0 01-1.215 1.144l-.07.065-.021.018-.006.006-.002.002c-.001 0-.002.001-1.798-2.512a458.479 458.479 0 01-1.797 2.512l-.003-.002-.006-.006-.02-.018-.071-.065a67.678 67.678 0 01-1.215-1.144 105.292 105.292 0 01-3.354-3.397 123.077 123.077 0 01-10.142-12.215C22.093 70.004 14.375 55.859 14.375 40.77zM46 94.418l-1.796 2.513c1.05.94 2.542.94 3.592 0L46 94.417zm0-4.225c.685-.676 1.54-1.54 2.518-2.575a116.83 116.83 0 009.624-11.59c7.076-9.77 13.733-22.449 13.733-35.256 0-16-11.585-28.969-25.875-28.969s-25.875 12.97-25.875 28.969c0 12.807 6.657 25.485 13.733 35.256a116.861 116.861 0 009.624 11.59A103.352 103.352 0 0046 90.192z" fill="#3E7EC1"/></svg>