<svg width="33" height="33" viewBox="0 0 33 33" fill="none" xmlns="http://www.w3.org/2000/svg"><path fill-rule="evenodd" clip-rule="evenodd" d="M8.629 6.627c-.87 0-1.359.762-1.13 1.442 1.1 3.256 3.132 8.102 6.135 11.105 3.003 3.003 7.849 5.036 11.105 6.134.68.23 1.442-.258 1.442-1.129v-3.313l-2.886-1.604-3.078 1.538a1.306 1.306 0 01-.83.115l.246-1.283-.246 1.283h-.003l-.005-.002-.011-.002-.033-.007a7.325 7.325 0 01-.45-.115 10.01 10.01 0 01-1.14-.408 10.149 10.149 0 01-3.188-2.13 10.19 10.19 0 01-2.133-3.19 10.09 10.09 0 01-.411-1.142 7.462 7.462 0 01-.116-.45l-.007-.033-.002-.011-.001-.005v-.002l1.281-.25-1.282.249a1.306 1.306 0 01.114-.834l1.54-3.078-1.598-2.878H8.629zm5.928 6.683c.06.19.147.44.269.724.3.7.795 1.586 1.579 2.37a7.539 7.539 0 002.364 1.574c.283.12.53.207.72.266l2.638-1.319a2.612 2.612 0 012.438.053l2.886 1.605a2.612 2.612 0 011.343 2.283v3.313c0 2.504-2.373 4.454-4.89 3.605-3.311-1.118-8.659-3.304-12.117-6.763-3.458-3.458-5.645-8.806-6.762-12.117-.85-2.517 1.1-4.89 3.604-4.89h3.313c.949 0 1.823.515 2.284 1.345l1.597 2.878c.418.753.438 1.665.053 2.436l-1.319 2.637z" fill="#3E7EC1"/></svg>